<svg width="68" height="67" viewBox="0 0 68 67" fill="none" xmlns="http://www.w3.org/2000/svg">
<path fill-rule="evenodd" clip-rule="evenodd" d="M50.918 0.0488281C41.5077 0.0488281 33.8867 7.57212 33.8867 17.1777V49.6973C33.8867 59.1076 41.5077 66.7285 50.918 66.7285C60.4259 66.7285 67.998 59.1076 67.998 49.6973V17.1777C67.998 7.57212 60.4259 0.0488281 50.918 0.0488281ZM39.2383 17.1777C39.2383 10.6642 44.4654 5.30273 50.918 5.30273C57.3706 5.30273 62.5977 10.6642 62.5977 17.1777V49.6973C62.5977 56.1073 57.328 61.377 50.918 61.377C44.508 61.377 39.2383 56.1073 39.2383 49.6973V17.1777Z" fill="#212121"/>
<path d="M10.5073 14.0215C10.5122 14.9001 10.5191 16.1844 10.5267 17.8076C10.542 21.0541 10.5603 25.6567 10.5725 31.082C10.5954 41.243 10.5969 54.2941 10.5167 66.7285H16.1438V0H11.5837L0.0351562 10.2239L1.15522 12.7731L10.4754 8.97801L10.4993 12.6698L10.5073 14.0215Z" fill="#212121"/>
</svg>
