<svg width="82" height="68" viewBox="0 0 82 68" fill="none" xmlns="http://www.w3.org/2000/svg">
<path fill-rule="evenodd" clip-rule="evenodd" d="M3.42675 36.1759L21.177 0.722656H27.345L14.4543 26.3574H18.998C28.7467 26.3574 37.0547 35.138 37.0547 46.2207V46.9043C37.0547 58.3877 28.8941 67.5 18.998 67.5C9.13279 67.5 0.84375 58.3673 0.84375 46.9043C0.84375 43.988 1.45195 41.1887 2.55574 38.5397L2.60546 38.4203L2.93558 37.3199C2.99944 37.1071 3.07269 36.8818 3.15518 36.6755C3.19574 36.5741 3.23345 36.4903 3.26675 36.4244C3.28305 36.3921 3.29657 36.3676 3.30686 36.35C3.3165 36.3336 3.32162 36.3261 3.32162 36.3261L3.42675 36.1759ZM18.998 31.6602C14.4298 31.6602 10.3367 34.4933 8.35047 38.5862L7.61842 40.0991L7.61769 40.1007C6.57792 42.2421 6.19531 44.6428 6.19531 46.9043C6.19531 55.0545 11.5856 62.0508 18.998 62.0508C26.2856 62.0508 31.8496 55.0871 31.8496 46.9043C31.8496 38.9152 26.3249 31.6602 18.998 31.6602ZM47.1328 17.9492C47.1328 8.3436 54.7538 0.820312 64.1641 0.820312C73.672 0.820312 81.2441 8.3436 81.2441 17.9492V50.4688C81.2441 59.8791 73.672 67.5 64.1641 67.5C54.7538 67.5 47.1328 59.8791 47.1328 50.4688V17.9492ZM64.1641 6.07422C57.7115 6.07422 52.4844 11.4357 52.4844 17.9492V50.4688C52.4844 56.8788 57.7541 62.1484 64.1641 62.1484C70.5741 62.1484 75.8438 56.8788 75.8438 50.4688V17.9492C75.8438 11.4357 70.6167 6.07422 64.1641 6.07422Z" fill="#212121"/>
</svg>
