<svg width="80" height="68" viewBox="0 0 80 68" fill="none" xmlns="http://www.w3.org/2000/svg">
<path fill-rule="evenodd" clip-rule="evenodd" d="M0.015625 0.769256V6.51878L29.8468 6.56977L4.1171 67.5008H10.0522L34.8105 7.54209V0.726562L0.015625 0.769256ZM62.1641 0.821149C52.7538 0.821149 45.1328 8.34444 45.1328 17.9501V50.4696C45.1328 59.8799 52.7538 67.5008 62.1641 67.5008C71.672 67.5008 79.2441 59.8799 79.2441 50.4696V17.9501C79.2441 8.34444 71.672 0.821149 62.1641 0.821149ZM50.4844 17.9501C50.4844 11.4365 55.7115 6.07506 62.1641 6.07506C68.6167 6.07506 73.8438 11.4365 73.8438 17.9501V50.4696C73.8438 56.8796 68.5741 62.1493 62.1641 62.1493C55.7541 62.1493 50.4844 56.8796 50.4844 50.4696V17.9501Z" fill="#212121"/>
</svg>
