<svg width="36" height="36" viewBox="0 0 36 36" fill="none" xmlns="http://www.w3.org/2000/svg">
<path d="M10 2.75C8.20507 2.75 6.75 4.20507 6.75 6V30C6.75 31.7949 8.20508 33.25 10 33.25H26C27.7949 33.25 29.25 31.7949 29.25 30V6C29.25 4.20507 27.7949 2.75 26 2.75H10ZM9.25 6C9.25 5.58579 9.58579 5.25 10 5.25H26C26.4142 5.25 26.75 5.58579 26.75 6V30C26.75 30.4142 26.4142 30.75 26 30.75H10C9.58579 30.75 9.25 30.4142 9.25 30V6ZM15 26.75C14.3096 26.75 13.75 27.3096 13.75 28C13.75 28.6904 14.3096 29.25 15 29.25H21C21.6904 29.25 22.25 28.6904 22.25 28C22.25 27.3096 21.6904 26.75 21 26.75H15Z" fill="#212121"/>
</svg>
