<svg width="20" height="20" viewBox="0 0 20 20" fill="none" xmlns="http://www.w3.org/2000/svg">
<path d="M11.278 7.78661L11.3352 7.83661L14.0686 10.5077C14.5595 10.9842 14.8442 11.6341 14.8614 12.3181C14.8787 13.002 14.6271 13.6655 14.1608 14.1661L14.0674 14.2622L10.5341 17.7027C9.51577 18.6972 7.89077 18.7277 6.83522 17.7922L6.738 17.7016L3.71188 14.7322C3.46069 14.4884 3.26099 14.1967 3.12461 13.8743C2.98824 13.552 2.91797 13.2055 2.91797 12.8555C2.91797 12.5055 2.98824 12.159 3.12461 11.8367C3.26099 11.5143 3.46069 11.2226 3.71188 10.9788C3.83871 10.8535 4.00886 10.7818 4.1871 10.7785C4.36535 10.7752 4.53804 10.8406 4.66941 10.9611C4.80078 11.0816 4.88077 11.2481 4.89281 11.4259C4.90486 11.6038 4.84803 11.7795 4.73411 11.9166L4.683 11.9722C4.20411 12.4394 4.183 13.1777 4.61855 13.6711L4.68355 13.7399L7.70966 16.7094C7.94687 16.9376 8.2599 17.0703 8.58884 17.0821C8.91778 17.0939 9.23951 16.9839 9.49244 16.7733L9.56411 16.7083L13.0974 13.2677C13.5763 12.8005 13.5974 12.0622 13.163 11.5699L13.0974 11.5011L10.3641 8.82995C10.2366 8.7059 10.1616 8.53765 10.1545 8.3599C10.1474 8.18215 10.2088 8.00845 10.326 7.87464C10.4432 7.74082 10.6073 7.65709 10.7844 7.64071C10.9616 7.62434 11.1382 7.67656 11.278 7.78661V7.78661ZM13.1719 2.22217L13.2691 2.31439L16.2958 5.33328C16.5459 5.58243 16.7444 5.87853 16.8798 6.20458C17.0153 6.53063 17.085 6.88022 17.085 7.23328C17.085 7.58634 17.0153 7.93593 16.8798 8.26198C16.7444 8.58803 16.5459 8.88413 16.2958 9.13328C16.1704 9.26069 16.0007 9.33484 15.822 9.34028C15.6433 9.34573 15.4694 9.28206 15.3365 9.16252C15.2035 9.04298 15.1218 8.87678 15.1084 8.69852C15.0949 8.52026 15.1507 8.34367 15.2641 8.2055L15.3152 8.14995C15.7997 7.66661 15.8219 6.89717 15.3808 6.38773L15.3147 6.31661L12.288 3.29717C12.0551 3.06527 11.7433 2.92968 11.4148 2.91742C11.0864 2.90517 10.7653 3.01716 10.5158 3.23106L10.4447 3.29772L6.90966 6.81995C6.67786 7.0508 6.5422 7.36095 6.53004 7.68787C6.51787 8.01479 6.6301 8.33417 6.84411 8.58161L6.90966 8.65273L9.99633 11.7305C10.1223 11.8559 10.1955 12.0248 10.2006 12.2025C10.2058 12.3802 10.1427 12.5531 10.0242 12.6856C9.90568 12.8182 9.74089 12.9002 9.56373 12.9148C9.38657 12.9295 9.21053 12.8756 9.07188 12.7644L9.01577 12.7144L5.92911 9.63661C5.44038 9.14981 5.15803 8.4934 5.14075 7.80382C5.12348 7.11423 5.37259 6.4445 5.83633 5.93384L5.92911 5.83661L9.46411 2.31384C9.9529 1.82684 10.6098 1.54582 11.2996 1.52867C11.9894 1.51151 12.6595 1.75952 13.1719 2.22161V2.22217Z" fill="#9E9E9E"/>
</svg>
