<svg width="28" height="28" viewBox="0 0 28 28" fill="none" xmlns="http://www.w3.org/2000/svg">
<path d="M9.3342 16.9166C9.77763 16.9165 10.2046 17.0848 10.5287 17.3874C10.8528 17.69 11.05 18.1044 11.0803 18.5468L11.0842 18.6666V22.5555C11.0843 22.9989 10.916 23.4258 10.6134 23.7499C10.3107 24.0741 9.89637 24.2712 9.45398 24.3016L9.3342 24.3055H5.44531C5.00188 24.3055 4.57496 24.1372 4.25084 23.8346C3.92671 23.532 3.72955 23.1176 3.6992 22.6752L3.69531 22.5555V18.6666C3.69526 18.2231 3.86354 17.7962 4.16616 17.4721C4.46877 17.148 4.88314 16.9508 5.32553 16.9204L5.44531 16.9166H9.3342ZM22.5564 16.9166C22.9999 16.9165 23.4268 17.0848 23.7509 17.3874C24.075 17.69 24.2722 18.1044 24.3025 18.5468L24.3064 18.6666V22.5555C24.3065 22.9989 24.1382 23.4258 23.8356 23.7499C23.533 24.0741 23.1186 24.2712 22.6762 24.3016L22.5564 24.3055H18.6675C18.2241 24.3055 17.7972 24.1372 17.4731 23.8346C17.1489 23.532 16.9518 23.1176 16.9214 22.6752L16.9175 22.5555V18.6666C16.9175 18.2231 17.0858 17.7962 17.3884 17.4721C17.691 17.148 18.1054 16.9508 18.5478 16.9204L18.6675 16.9166H22.5564ZM14.9731 17.4999V23.7221H13.0286V17.4999H14.9731ZM9.13976 18.861H5.63976V22.361H9.13976V18.861ZM22.362 18.861H18.862V22.361H22.362V18.861ZM12.4453 3.69434C13.091 3.69429 13.7122 3.94132 14.1815 4.38475C14.6508 4.82817 14.9326 5.43438 14.9692 6.079L14.9731 6.22211V12.4443C14.9731 13.09 14.7261 13.7112 14.2827 14.1805C13.8393 14.6498 13.2331 14.9317 12.5884 14.9682L12.4453 14.9721H6.22309C5.57743 14.9722 4.95622 14.7251 4.48691 14.2817C4.0176 13.8383 3.73576 13.2321 3.6992 12.5874L3.69531 12.4443V6.22211C3.69527 5.57645 3.9423 4.95525 4.38572 4.48593C4.82915 4.01662 5.43535 3.73478 6.07998 3.69822L6.22309 3.69434H12.4453ZM23.7231 13.0277V14.9721H17.5009V13.0277H23.7231ZM12.4453 5.63878H6.22309C6.08213 5.63879 5.94594 5.68984 5.8397 5.78249C5.73346 5.87514 5.66437 6.00313 5.6452 6.14278L5.63976 6.22211V12.4443C5.63976 12.7399 5.85909 12.9833 6.14376 13.0222L6.22309 13.0277H12.4453C12.5863 13.0277 12.7225 12.9766 12.8287 12.884C12.9349 12.7913 13.004 12.6633 13.0232 12.5237L13.0286 12.4443V6.22211C13.0286 6.14551 13.0136 6.06966 12.9842 5.99888C12.9549 5.92811 12.912 5.8638 12.8578 5.80963C12.8036 5.75547 12.7393 5.7125 12.6685 5.68318C12.5978 5.65387 12.5219 5.63878 12.4453 5.63878ZM22.5564 3.69434C22.9999 3.69428 23.4268 3.86257 23.7509 4.16518C24.075 4.46779 24.2722 4.88217 24.3025 5.32456L24.3064 5.44434V9.33323C24.3065 9.77666 24.1382 10.2036 23.8356 10.5277C23.533 10.8518 23.1186 11.049 22.6762 11.0793L22.5564 11.0832H18.6675C18.2241 11.0833 17.7972 10.915 17.4731 10.6124C17.1489 10.3098 16.9518 9.89539 16.9214 9.453L16.9175 9.33323V5.44434C16.9175 5.0009 17.0858 4.57399 17.3884 4.24986C17.691 3.92574 18.1054 3.72857 18.5478 3.69822L18.6675 3.69434H22.5564ZM10.112 7.77767C10.2141 7.77767 10.3153 7.79779 10.4096 7.83687C10.504 7.87596 10.5897 7.93325 10.662 8.00548C10.7342 8.0777 10.7915 8.16344 10.8306 8.2578C10.8696 8.35217 10.8898 8.45331 10.8898 8.55545V10.111C10.8898 10.3173 10.8078 10.5151 10.662 10.661C10.5161 10.8068 10.3183 10.8888 10.112 10.8888H8.55642C8.45428 10.8888 8.35315 10.8687 8.25878 10.8296C8.16442 10.7905 8.07868 10.7332 8.00645 10.661C7.93423 10.5888 7.87694 10.503 7.83785 10.4086C7.79876 10.3143 7.77865 10.2131 7.77865 10.111V8.55545C7.77865 8.45331 7.79876 8.35217 7.83785 8.2578C7.87694 8.16344 7.93423 8.0777 8.00645 8.00548C8.07868 7.93325 8.16442 7.87596 8.25878 7.83687C8.35315 7.79779 8.45428 7.77767 8.55642 7.77767H10.112ZM22.362 5.63878H18.862V9.13878H22.362V5.63878Z" fill="#212121"/>
</svg>
