<svg width="750" height="88" viewBox="0 0 750 88" fill="none" xmlns="http://www.w3.org/2000/svg">
<rect x="564" y="12" width="174" height="64" rx="32" fill="white" fill-opacity="0.596637"/>
<rect x="564.25" y="12.25" width="173.5" height="63.5" rx="31.75" stroke="#979797" stroke-opacity="0.201002" stroke-width="0.5"/>
<path d="M711.333 43.6665C711.333 53.0553 703.722 60.6665 694.333 60.6665C684.945 60.6665 677.333 53.0553 677.333 43.6665C677.333 34.2777 684.945 26.6665 694.333 26.6665C703.722 26.6665 711.333 34.2777 711.333 43.6665ZM707.333 43.6665C707.333 36.4868 701.513 30.6665 694.333 30.6665C687.154 30.6665 681.333 36.4868 681.333 43.6665C681.333 50.8462 687.154 56.6665 694.333 56.6665C701.513 56.6665 707.333 50.8462 707.333 43.6665ZM694.333 49.6665C697.647 49.6665 700.333 46.9797 700.333 43.6665C700.333 40.3521 697.647 37.6665 694.333 37.6665C691.02 37.6665 688.333 40.3521 688.333 43.6665C688.333 46.9797 691.02 49.6665 694.333 49.6665Z" fill="#212121"/>
<rect x="651" y="25" width="1" height="37" fill="black" fill-opacity="0.198907"/>
<path fill-rule="evenodd" clip-rule="evenodd" d="M609.5 51C613.09 51 616 48.0899 616 44.5C616 40.9101 613.09 38 609.5 38C605.91 38 603 40.9101 603 44.5C603 48.0899 605.91 51 609.5 51ZM599 45C599 47.2088 597.209 49 595 49C592.791 49 591 47.2088 591 45C591 42.7904 592.791 41 595 41C597.209 41 599 42.7904 599 45ZM628 45C628 47.2088 626.209 49 624 49C621.791 49 620 47.2088 620 45C620 42.7904 621.791 41 624 41C626.209 41 628 42.7904 628 45Z" fill="#212121"/>
<path d="M50.1367 28.3778C50.4383 28.0739 50.8452 27.8978 51.2732 27.8858C51.7011 27.8739 52.1173 28.0271 52.4353 28.3138C52.7534 28.6004 52.9489 28.9984 52.9814 29.4253C53.0139 29.8521 52.8809 30.2752 52.61 30.6067L52.4955 30.7333L39.2444 43.9989L52.5111 57.2655C52.8032 57.5571 52.9767 57.9467 52.998 58.3589C53.0194 58.771 52.8871 59.1765 52.6267 59.4967L52.5122 59.6233C52.2205 59.9153 51.8308 60.0886 51.4187 60.1097C51.0065 60.1308 50.6012 59.9983 50.2811 59.7378L50.1544 59.6233L34.5333 44L50.1367 28.3778Z" fill="#212121"/>
</svg>
