<svg width="750" height="88" viewBox="0 0 750 88" fill="none" xmlns="http://www.w3.org/2000/svg">
<rect x="564" y="12" width="174" height="64" rx="32" fill="white" fill-opacity="0.596637"/>
<rect x="564.25" y="12.25" width="173.5" height="63.5" rx="31.75" stroke="#979797" stroke-opacity="0.201002" stroke-width="0.5"/>
<path fillRule="evenodd" clipRule="evenodd" d="M711.332 43.6665C711.332 53.0553 703.721 60.6665 694.332 60.6665C684.943 60.6665 677.332 53.0553 677.332 43.6665C677.332 34.2777 684.943 26.6665 694.332 26.6665C703.721 26.6665 711.332 34.2777 711.332 43.6665ZM707.332 43.6665C707.332 50.8462 701.512 56.6665 694.332 56.6665C687.152 56.6665 681.332 50.8462 681.332 43.6665C681.332 36.4868 687.152 30.6665 694.332 30.6665C701.512 30.6665 707.332 36.4868 707.332 43.6665ZM694.332 49.6665C697.645 49.6665 700.332 46.9797 700.332 43.6665C700.332 40.3521 697.645 37.6665 694.332 37.6665C691.019 37.6665 688.332 40.3521 688.332 43.6665C688.332 46.9797 691.019 49.6665 694.332 49.6665Z" fill="#212121"/>
<rect x="651" y="25" width="1" height="37" fill="black" fill-opacity="0.198907"/>
<path fillRule="evenodd" clipRule="evenodd" d="M609.5 51C613.09 51 616 48.0899 616 44.5C616 40.9101 613.09 38 609.5 38C605.91 38 603 40.9101 603 44.5C603 48.0899 605.91 51 609.5 51ZM599 45C599 47.2088 597.209 49 595 49C592.791 49 591 47.2088 591 45C591 42.7904 592.791 41 595 41C597.209 41 599 42.7904 599 45ZM628 45C628 47.2088 626.209 49 624 49C621.791 49 620 47.2088 620 45C620 42.7904 621.791 41 624 41C626.209 41 628 42.7904 628 45Z" fill="#212121"/>
<path d="M50.1385 28.3778C50.4401 28.074 50.847 27.8978 51.275 27.8859C51.703 27.874 52.1191 28.0272 52.4371 28.3138C52.7552 28.6004 52.9507 28.9984 52.9833 29.4253C53.0158 29.8522 52.8828 30.2752 52.6118 30.6067L52.4974 30.7334L39.2463 43.9989L52.5129 57.2656C52.805 57.5572 52.9785 57.9468 52.9999 58.3589C53.0212 58.7711 52.8889 59.1765 52.6285 59.4967L52.514 59.6234C52.2223 59.9153 51.8327 60.0886 51.4205 60.1098C51.0083 60.1309 50.603 59.9984 50.2829 59.7378L50.1563 59.6234L34.5352 44.0001L50.1385 28.3778Z" fill="#212121"/>
</svg>
