<svg width="20" height="20" viewBox="0 0 20 20" fill="none" xmlns="http://www.w3.org/2000/svg">
<path fillRule="evenodd" clipRule="evenodd" d="M13.5434 1.04172C13.7867 0.964938 14.0512 0.995046 14.2711 1.12455L16.9546 2.70539C17.1071 2.79526 17.2008 2.95912 17.2008 3.13619V7.224C17.2008 7.44145 17.0602 7.63397 16.8531 7.70022L14.5475 8.43781V16.9091C14.5475 17.1707 14.3779 17.4022 14.1284 17.4811L9.50587 18.9436C9.31462 19.0041 9.10659 18.9797 8.93458 18.8765L6.23101 17.2544C6.08041 17.164 5.98826 17.0013 5.98826 16.8257V11.0652L3.09624 9.36155C2.91316 9.2537 2.80078 9.05706 2.80078 8.84458V4.87141C2.80078 4.60959 2.97055 4.378 3.22023 4.29922L13.5434 1.04172ZM9.31347 18.7759C9.3579 18.7742 9.40232 18.7666 9.44554 18.753L14.0681 17.2905C14.2344 17.2378 14.3475 17.0835 14.3475 16.9091V8.3648V8.2918L14.417 8.26956L16.7922 7.50973C16.9165 7.46998 17.0008 7.35447 17.0008 7.224V3.13619C17.0008 3.1029 16.9953 3.07039 16.9849 3.03978L6.48016 6.36226C6.31383 6.41487 6.20078 6.5692 6.20078 6.74364V10.8516L9.18307 9.89991L9.31347 9.8583V9.99518V18.7759Z" fill="black"/>
</svg>
