<svg width="18" height="18" viewBox="0 0 18 18" fill="none" xmlns="http://www.w3.org/2000/svg">
<path d="M8.25 1.875C11.771 1.875 14.625 4.729 14.625 8.25C14.625 9.785 14.082 11.194 13.178 12.2945L15.942 15.058C16.0551 15.171 16.1205 15.3231 16.1249 15.4829C16.1293 15.6427 16.0723 15.7981 15.9656 15.9171C15.8589 16.0362 15.7106 16.1098 15.5513 16.1229C15.392 16.136 15.2337 16.0875 15.109 15.9875L15.058 15.942L12.2945 13.178C11.1554 14.1156 9.72534 14.6272 8.25 14.625C4.729 14.625 1.875 11.771 1.875 8.25C1.875 4.729 4.729 1.875 8.25 1.875ZM8.25 3.125C5.42 3.125 3.125 5.42 3.125 8.25C3.125 11.08 5.42 13.375 8.25 13.375C11.08 13.375 13.375 11.08 13.375 8.25C13.375 5.42 11.08 3.125 8.25 3.125Z" fill="#212121"/>
</svg>
