<svg width="360" height="77" viewBox="0 0 360 77" fill="none" xmlns="http://www.w3.org/2000/svg">
<path d="M100.638 26.666C104.858 26.666 108.652 28.5442 111.406 31.6008L111.406 27.429H118.202V60.2363H111.406L111.407 56.198C108.68 59.2027 104.913 61.0342 100.638 60.9988C91.9365 60.9267 85.7305 53.1873 85.7305 43.6403C85.7305 34.0933 92.121 26.666 100.638 26.666ZM101.579 33.5327C95.7808 33.5327 92.4056 38.0788 92.5302 43.9764C92.6548 49.874 96.1326 54.1326 101.579 54.1326C107.025 54.1326 110.651 49.9171 110.651 44.0195C110.651 38.1219 107.377 33.5327 101.579 33.5327Z" fill="#222222"/>
<path d="M152.325 38.1456L152.328 38.1433V60.3326H145.512V44.1971L145.509 44.1978V42.9992C145.509 40.7401 145.383 39.1666 145.131 38.2785C145.131 38.2785 144.149 33.5681 139.211 34.0099C139.211 34.0099 133.361 34.431 132.723 41.528C132.716 41.5829 132.674 41.9724 132.637 43.5251L132.637 60.3326H125.82V27.4312H132.637L132.637 30.7733C134.991 28.7749 137.323 27.4963 139.632 26.9377C139.632 26.9377 151.96 23.8992 152.325 38.1456Z" fill="#222222"/>
<path d="M9.07031 22.8242H15.8732V60.3303H9.07031V22.8242Z" fill="#222222"/>
<path d="M0 25.8223L0 18.9978H24.1882V25.8223H0Z" fill="#222222"/>
<path d="M51.6328 15.998H58.5046V60.3313H51.6328V15.998Z" fill="#222222"/>
<path d="M47.0547 34.373V27.4634H64.616V34.373H47.0547Z" fill="#222222"/>
<path d="M32.4318 60.1998L38.7439 60.1998L38.7439 28.3307L32.4318 30.4043L32.4318 60.1998Z" fill="#222222"/>
<path d="M35.6177 25.1507C38.0881 25.1507 40.0909 23.1018 40.0909 20.5744C40.0909 18.0469 38.0881 15.998 35.6177 15.998C33.1472 15.998 31.1445 18.0469 31.1445 20.5744C31.1445 23.1018 33.1472 25.1507 35.6177 25.1507Z" fill="#222222"/>
<path d="M71.7756 60.1998L78.0877 60.1998L78.0877 28.3307L71.7756 30.4043L71.7756 60.1998Z" fill="#222222"/>
<path d="M74.9614 25.1507C77.4319 25.1507 79.4346 23.1018 79.4346 20.5744C79.4346 18.0469 77.4319 15.998 74.9614 15.998C72.491 15.998 70.4883 18.0469 70.4883 20.5744C70.4883 23.1018 72.491 25.1507 74.9614 25.1507Z" fill="#222222"/>
<path fill-rule="evenodd" clip-rule="evenodd" d="M174.566 60.1755L182.382 19.0176L189.3 19.0178L196.932 50.2486L204.676 19.0178H211.595L219.401 60.1755H212.98L207.767 32.2057L200.963 60.1755H192.997L186.175 32.2057L180.927 60.1755H174.566Z" fill="#222222"/>
<path d="M298.67 60.0459L304.997 60.0459L304.997 28.288L298.67 30.3544L298.67 60.0459Z" fill="#222222"/>
<path d="M301.866 25.1187C304.342 25.1187 306.349 23.077 306.349 20.5584C306.349 18.0398 304.342 15.998 301.866 15.998C299.39 15.998 297.383 18.0398 297.383 20.5584C297.383 23.077 299.39 25.1187 301.866 25.1187Z" fill="#222222"/>
<path d="M238.562 27.625C247.182 27.625 254.17 35.0609 254.17 44.2335C254.17 53.4061 247.182 60.8419 238.562 60.8419C229.941 60.8419 222.953 53.4061 222.953 44.2335C222.953 35.0609 229.941 27.625 238.562 27.625ZM238.894 34.2684C233.575 34.2684 229.263 38.8043 229.263 44.3996C229.263 49.9948 233.575 54.5307 238.894 54.5307C244.213 54.5307 248.524 49.9948 248.524 44.3996C248.524 38.8043 244.213 34.2684 238.894 34.2684Z" fill="#222222"/>
<path d="M266.986 16.1504L266.986 31.3944C269.508 29.0379 272.738 27.6232 276.258 27.6232C284.328 27.6232 290.87 35.0591 290.87 44.2317C290.87 53.4043 284.328 60.8401 276.258 60.8401C272.738 60.8401 269.508 59.4254 266.986 57.069L266.986 60.1758H260.676V16.1504H266.986ZM275.926 34.2666C271.207 34.2666 267.34 38.3845 266.986 43.6131V45.1824C267.34 50.411 271.207 54.5289 275.926 54.5289C280.878 54.5289 284.892 49.993 284.892 44.3978C284.892 38.8025 280.878 34.2666 275.926 34.2666Z" fill="#222222"/>
<path d="M320.005 16.1504V60.1736H313.695V16.1504H320.005Z" fill="#222222"/>
<path fill-rule="evenodd" clip-rule="evenodd" d="M343.428 27.5957C352.009 27.6088 356.347 33.4939 356.874 34.2582L356.909 34.3098C356.922 34.3294 356.928 34.3396 356.928 34.3396C359.189 37.2996 360.202 41.3691 359.966 46.5479H333.841C335.002 54.1895 341.51 54.6954 343.034 54.7082L343.18 54.7079C343.264 54.7068 343.319 54.7044 343.341 54.7033L343.353 54.7027C347.577 54.5526 350.687 53.1888 352.683 50.6113C356.229 52.874 358.002 54.0053 358.002 54.0053C353.215 60.7768 344.552 60.995 343.465 60.9983L343.381 60.9982C343.375 60.9981 343.37 60.9981 343.365 60.998L343.353 60.998C328.475 60.998 327.426 46.5479 327.426 46.5479C326.795 39.3345 329.998 34.627 330.189 34.3524L330.198 34.3396C334.723 28.0262 341.985 27.6189 343.241 27.5964L343.428 27.5957ZM339.448 34.7623C339.448 34.7623 335.534 36.2035 334.252 40.4493H352.453C351.653 37.6978 350.16 35.8021 347.974 34.7623C347.974 34.7623 344.093 32.8863 339.448 34.7623Z" fill="#222222"/>
</svg>
