<?xml version="1.0" standalone="no"?><!DOCTYPE svg PUBLIC "-//W3C//DTD SVG 1.1//EN" "http://www.w3.org/Graphics/SVG/1.1/DTD/svg11.dtd"><svg class="icon" width="200px" height="200.00px" viewBox="0 0 1024 1024" version="1.1" xmlns="http://www.w3.org/2000/svg"><path fill="#333333" d="M775.594667 886.300444a35.555556 35.555556 0 0 1-29.44 40.760889A1467.989333 1467.989333 0 0 1 512 945.777778c-78.592 0-156.416-6.229333-232.96-18.517334a35.555556 35.555556 0 0 1 11.264-70.200888c72.817778 11.662222 146.887111 17.607111 221.696 17.607111 75.207111 0 149.617778-5.973333 222.833778-17.806223a35.555556 35.555556 0 0 1 40.760889 29.44zM285.781333 157.155556c124.956444-124.216889 327.480889-124.216889 452.408889 0a317.155556 317.155556 0 0 1 6.371556 443.847111l-6.371556 6.485333-181.077333 180.024889a64 64 0 0 1-86.556445 3.356444l-3.697777-3.356444-181.048889-180.024889a317.155556 317.155556 0 0 1 0-450.332444zM688.071111 207.587556c-97.223111-96.625778-254.919111-96.625778-352.142222 0a246.044444 246.044444 0 0 0-5.688889 343.608888l5.688889 5.859556L512 732.074667l176.071111-175.018667a246.044444 246.044444 0 0 0 11.178667-337.607111l-5.461334-5.973333-5.717333-5.888zM512 248.888889a135.111111 135.111111 0 1 1 0 270.222222 135.111111 135.111111 0 0 1 0-270.222222z m0 71.111111a64 64 0 1 0 0 128 64 64 0 0 0 0-128z"  /></svg>