<?xml version="1.0" standalone="no"?><!DOCTYPE svg PUBLIC "-//W3C//DTD SVG 1.1//EN" "http://www.w3.org/Graphics/SVG/1.1/DTD/svg11.dtd"><svg class="icon" width="200px" height="200.00px" viewBox="0 0 1024 1024" version="1.1" xmlns="http://www.w3.org/2000/svg"><path fill="#333333" d="M412.444444 547.555556a64 64 0 0 1 63.857778 59.619555l0.142222 4.380445v227.555555a64 64 0 0 1-59.619555 63.857778l-4.380445 0.142222h-227.555555a64 64 0 0 1-63.857778-59.619555L120.888889 839.111111v-227.555555a64 64 0 0 1 59.619555-63.857778l4.380445-0.142222h227.555555z m455.111112 241.777777a35.555556 35.555556 0 0 1 3.640888 70.940445l-3.640888 0.170666h-284.444445a35.555556 35.555556 0 0 1-3.640889-70.940444l3.640889-0.170667h284.444445z m-462.222223-170.666666h-213.333333v213.333333h213.333333v-213.333333z m462.222223-28.444445a35.555556 35.555556 0 0 1 3.640888 70.940445l-3.640888 0.170666h-284.444445a35.555556 35.555556 0 0 1-3.640889-70.940444l3.640889-0.170667h284.444445z m-455.111112-469.333333a64 64 0 0 1 63.857778 59.619555l0.142222 4.380445v227.555555a64 64 0 0 1-59.619555 63.857778l-4.380445 0.142222h-227.555555a64 64 0 0 1-63.857778-59.619555L120.888889 412.444444v-227.555555a64 64 0 0 1 59.619555-63.857778L184.888889 120.888889h227.555555z m426.666667 0a64 64 0 0 1 63.857778 59.619555l0.142222 4.380445v227.555555a64 64 0 0 1-59.619555 63.857778l-4.380445 0.142222h-227.555555a64 64 0 0 1-63.857778-59.619555l-0.142222-4.380445v-227.555555a64 64 0 0 1 59.619555-63.857778l4.380445-0.142222h227.555555z m-433.777778 71.111111h-213.333333v213.333333h213.333333v-213.333333z m426.666667 0h-213.333333v213.333333h213.333333v-213.333333z"  /></svg>