<?xml version="1.0" standalone="no"?><!DOCTYPE svg PUBLIC "-//W3C//DTD SVG 1.1//EN" "http://www.w3.org/Graphics/SVG/1.1/DTD/svg11.dtd"><svg class="icon" width="200px" height="200.00px" viewBox="0 0 1024 1024" version="1.1" xmlns="http://www.w3.org/2000/svg"><path fill="#333333" d="M284.444444 824.888889a56.888889 56.888889 0 1 1 0 113.777778 56.888889 56.888889 0 0 1 0-113.777778z m455.111112 0a56.888889 56.888889 0 1 1 0 113.777778 56.888889 56.888889 0 0 1 0-113.777778zM68.636444 78.222222a106.666667 106.666667 0 0 1 101.774223 74.695111l1.536 5.404445 129.024 501.219555a21.333333 21.333333 0 0 0 17.464889 15.786667l3.185777 0.227556h401.351111a21.333333 21.333333 0 0 0 19.911112-13.653334l0.853333-2.787555 86.983111-368.810667a21.333333 21.333333 0 0 0-17.834667-26.055111l-2.901333-0.199111-468.736-0.938667a35.555556 35.555556 0 0 1-3.470222-70.940444l3.640889-0.170667 468.707555 0.938667a92.444444 92.444444 0 0 1 91.164445 106.723555l-1.365334 6.940445-86.983111 368.839111a92.444444 92.444444 0 0 1-84.650666 71.082666l-5.319112 0.142223h-401.351111a92.444444 92.444444 0 0 1-88.064-64.369778l-1.450666-5.034667L103.082667 176.014222a35.555556 35.555556 0 0 0-30.72-26.481778l-3.697778-0.199111H42.666667a35.555556 35.555556 0 0 1-3.640889-70.940444L42.666667 78.222222h25.969777z"  /></svg>