<?xml version="1.0" standalone="no"?><!DOCTYPE svg PUBLIC "-//W3C//DTD SVG 1.1//EN" "http://www.w3.org/Graphics/SVG/1.1/DTD/svg11.dtd"><svg class="icon" width="200px" height="200.00px" viewBox="0 0 1024 1024" version="1.1" xmlns="http://www.w3.org/2000/svg"><path fill="#333333" d="M199.111111 753.777778a56.888889 56.888889 0 1 1 0 113.777778 56.888889 56.888889 0 0 1 0-113.777778z m654.222222 21.333333a35.555556 35.555556 0 0 1 3.640889 70.940445L853.333333 846.222222H369.777778a35.555556 35.555556 0 0 1-3.640889-70.940444L369.777778 775.111111h483.555555zM199.111111 455.111111a56.888889 56.888889 0 1 1 0 113.777778 56.888889 56.888889 0 0 1 0-113.777778z m654.222222 21.333333a35.555556 35.555556 0 0 1 3.640889 70.940445L853.333333 547.555556H369.777778a35.555556 35.555556 0 0 1-3.640889-70.940445L369.777778 476.444444h483.555555zM199.111111 156.444444a56.888889 56.888889 0 1 1 0 113.777778 56.888889 56.888889 0 0 1 0-113.777778z m654.222222 21.333334a35.555556 35.555556 0 0 1 3.640889 70.940444L853.333333 248.888889H369.777778a35.555556 35.555556 0 0 1-3.640889-70.940445L369.777778 177.777778h483.555555z"  /></svg>