<?xml version="1.0" standalone="no"?><!DOCTYPE svg PUBLIC "-//W3C//DTD SVG 1.1//EN" "http://www.w3.org/Graphics/SVG/1.1/DTD/svg11.dtd"><svg class="icon" width="200px" height="200.00px" viewBox="0 0 1024 1024" version="1.1" xmlns="http://www.w3.org/2000/svg"><path fill="#333333" d="M811.975111 212.024889a42.666667 42.666667 0 0 1 2.929778 57.088l-2.929778 3.242667L572.302222 512l239.644445 239.644444a42.666667 42.666667 0 0 1-57.088 63.260445l-3.242667-2.929778L512 572.302222l-239.644444 239.644445a42.666667 42.666667 0 0 1-63.260445-57.088l2.929778-3.242667L451.640889 512 212.024889 272.355556a42.666667 42.666667 0 0 1 57.088-63.260445l3.242667 2.929778L512 451.640889l239.644444-239.616a42.666667 42.666667 0 0 1 60.302223 0z"  /></svg>