<?xml version="1.0" standalone="no"?><!DOCTYPE svg PUBLIC "-//W3C//DTD SVG 1.1//EN" "http://www.w3.org/Graphics/SVG/1.1/DTD/svg11.dtd"><svg class="icon" width="200px" height="200.00px" viewBox="0 0 1024 1024" version="1.1" xmlns="http://www.w3.org/2000/svg"><path fill="#333333" d="M507.733333 959.857778a56.888889 56.888889 0 1 1 57.912889-75.690667 305.976889 305.976889 0 0 0 213.532445-152.234667l-5.319111 0.369778-5.859556 0.142222a120.888889 120.888889 0 0 1-120.746667-115.029333l-0.142222-5.859555V483.555556a120.888889 120.888889 0 0 1 115.029333-120.746667L768 362.666667h28.444444c5.063111 0 10.040889 0.398222 14.876445 1.194666C782.364444 225.109333 659.342222 120.888889 512 120.888889S241.635556 225.109333 212.679111 363.889778c4.835556-0.824889 9.813333-1.223111 14.876445-1.223111h28.444444A120.888889 120.888889 0 0 1 376.888889 483.555556v128a120.888889 120.888889 0 1 1-241.777778 0V426.666667C135.111111 218.510222 303.843556 49.777778 512 49.777778c205.226667 0 372.138667 164.010667 376.775111 368.128l0.113778 8.760889v184.888889c0 12.600889-1.934222 24.746667-5.518222 36.209777-30.179556 174.535111-180.423111 307.968-362.609778 312.120889L512 960zM256 433.777778H227.555556a21.333333 21.333333 0 0 0-21.333334 21.248V611.555556a49.777778 49.777778 0 0 0 99.555556 0V483.555556A49.777778 49.777778 0 0 0 256 433.777778z m540.444444 0h-28.444444a49.777778 49.777778 0 0 0-49.607111 45.681778L718.222222 483.555556v128a49.777778 49.777778 0 0 0 96 18.545777c1.934222-12.714667 3.128889-25.685333 3.441778-38.855111l0.113778-8.135111v-128.085333a21.333333 21.333333 0 0 0-18.432-21.048889L796.444444 433.777778z"  /></svg>