<?xml version="1.0" standalone="no"?><!DOCTYPE svg PUBLIC "-//W3C//DTD SVG 1.1//EN" "http://www.w3.org/Graphics/SVG/1.1/DTD/svg11.dtd"><svg class="icon" width="200px" height="200.00px" viewBox="0 0 1024 1024" version="1.1" xmlns="http://www.w3.org/2000/svg"><path fill="#333333" d="M640 106.666667a92.444444 92.444444 0 0 1 92.302222 87.210666L732.444444 199.111111v49.777778H881.777778a35.555556 35.555556 0 0 1 3.640889 70.940444L881.777778 320h-49.777778V824.888889a92.444444 92.444444 0 0 1-87.210667 92.302222L739.555556 917.333333H284.444444a92.444444 92.444444 0 0 1-92.302222-87.210666L192 824.888889V320H142.222222a35.555556 35.555556 0 0 1-3.640889-70.940444L142.222222 248.888889h149.333334V199.111111a92.444444 92.444444 0 0 1 87.210666-92.302222l5.233778-0.142222h256z m120.888889 213.333333H263.111111V824.888889c0 10.808889 8.021333 19.712 18.432 21.134222l2.901333 0.199111h455.111112a21.333333 21.333333 0 0 0 21.134222-18.432L760.888889 824.888889V320z m-348.444445 99.555556c18.403556 0 33.564444 13.994667 35.384889 31.914666l0.170667 3.640889v256a35.555556 35.555556 0 0 1-70.940444 3.640889L376.888889 711.111111v-256c0-19.626667 15.928889-35.555556 35.555555-35.555555z m199.111112 0c18.403556 0 33.564444 13.994667 35.384888 31.914666l0.170667 3.640889v256a35.555556 35.555556 0 0 1-70.940444 3.640889L576 711.111111v-256c0-19.626667 15.928889-35.555556 35.555556-35.555555z m28.444444-241.777778h-256a21.333333 21.333333 0 0 0-21.134222 18.432L362.666667 199.111111v49.777778h298.666666V199.111111a21.333333 21.333333 0 0 0-18.432-21.134222L640 177.777778z"  /></svg>