<?xml version="1.0" standalone="no"?><!DOCTYPE svg PUBLIC "-//W3C//DTD SVG 1.1//EN" "http://www.w3.org/Graphics/SVG/1.1/DTD/svg11.dtd"><svg class="icon" width="200px" height="200.00px" viewBox="0 0 1024 1024" version="1.1" xmlns="http://www.w3.org/2000/svg"><path fill="#333333" d="M853.333333 106.666667a120.888889 120.888889 0 0 1 120.746667 115.029333L974.222222 227.555556v483.555555a120.888889 120.888889 0 0 1-115.029333 120.746667l-4.039111 0.113778a120.945778 120.945778 0 0 1-231.168 0.056888h-195.527111a120.945778 120.945778 0 0 1-231.139556 0L170.666667 832a120.888889 120.888889 0 0 1-120.746667-115.029333L49.777778 711.111111v-270.222222a206.222222 206.222222 0 0 1 199.395555-206.108445L256 234.666667h92.444444V227.555556a120.888889 120.888889 0 0 1 115.029334-120.746667l5.859555-0.142222H853.333333z m-540.444444 640a49.777778 49.777778 0 1 0 0 99.555555 49.777778 49.777778 0 0 0 0-99.555555z m426.666667 0a49.777778 49.777778 0 1 0 0 99.555555 49.777778 49.777778 0 0 0 0-99.555555z m117.873777-568.718223L853.333333 177.777778H469.333333a49.777778 49.777778 0 0 0-49.607111 45.681778L419.555556 227.555556v170.666666a120.888889 120.888889 0 0 1-115.029334 120.746667l-5.859555 0.142222h-56.888889a35.555556 35.555556 0 0 1-3.640889-70.940444l3.640889-0.170667h56.888889a49.777778 49.777778 0 0 0 49.607111-45.681778L348.444444 398.222222v-92.444444H256a135.111111 135.111111 0 0 0-134.968889 128.938666l-0.142222 6.172445V711.111111a49.777778 49.777778 0 0 0 45.681778 49.607111L170.666667 760.888889h26.652444a120.945778 120.945778 0 0 1 231.139556 0h195.527111a120.945778 120.945778 0 0 1 231.111111-0.085333L853.333333 760.888889a49.777778 49.777778 0 0 0 49.607111-45.681778L903.111111 711.111111V227.555556a49.777778 49.777778 0 0 0-45.681778-49.607112z"  /></svg>