<?xml version="1.0" standalone="no"?><!DOCTYPE svg PUBLIC "-//W3C//DTD SVG 1.1//EN" "http://www.w3.org/Graphics/SVG/1.1/DTD/svg11.dtd"><svg class="icon" width="200px" height="200.00px" viewBox="0 0 1024 1024" version="1.1" xmlns="http://www.w3.org/2000/svg"><path fill="#333333" d="M512 78.222222c239.559111 0 433.777778 194.218667 433.777778 433.777778S751.559111 945.777778 512 945.777778 78.222222 751.559111 78.222222 512 272.440889 78.222222 512 78.222222z m0 71.111111C311.694222 149.333333 149.333333 311.694222 149.333333 512S311.694222 874.666667 512 874.666667 874.666667 712.305778 874.666667 512 712.305778 149.333333 512 149.333333z m-91.534222 221.155556l2.901333 2.588444L512 461.738667l88.632889-88.661334a35.555556 35.555556 0 0 1 52.878222 47.388445l-2.588444 2.901333L562.261333 512l88.661334 88.632889a35.555556 35.555556 0 0 1-47.388445 52.878222l-2.901333-2.588444L512 562.261333l-88.632889 88.661334a35.555556 35.555556 0 0 1-52.878222-47.388445l2.588444-2.901333L461.738667 512l-88.661334-88.632889a35.555556 35.555556 0 0 1 47.388445-52.878222z"  /></svg>