<?xml version="1.0" standalone="no"?><!DOCTYPE svg PUBLIC "-//W3C//DTD SVG 1.1//EN" "http://www.w3.org/Graphics/SVG/1.1/DTD/svg11.dtd"><svg class="icon" width="200px" height="200.00px" viewBox="0 0 1024 1024" version="1.1" xmlns="http://www.w3.org/2000/svg"><path fill="#333333" d="M745.528889 142.222222a99.555556 99.555556 0 0 1 70.144 170.211556l-4.266667 3.982222-128.967111 113.777778a42.666667 42.666667 0 0 1-59.562667-60.899556l3.128889-3.072 128.938667-113.777778a14.222222 14.222222 0 0 0-6.997333-24.689777L745.528889 227.555556H297.841778a14.222222 14.222222 0 0 0-11.377778 22.755555l1.536 1.706667 266.666667 256V853.333333a42.666667 42.666667 0 0 1-85.134223 4.096L469.333333 853.333333V544.398222l-240.440889-230.798222a99.555556 99.555556 0 0 1-30.407111-65.592889L198.286222 241.777778a99.555556 99.555556 0 0 1 94.094222-99.413334L297.841778 142.222222h447.715555z"  /></svg>