<?xml version="1.0" standalone="no"?><!DOCTYPE svg PUBLIC "-//W3C//DTD SVG 1.1//EN" "http://www.w3.org/Graphics/SVG/1.1/DTD/svg11.dtd"><svg class="icon" width="200px" height="200.00px" viewBox="0 0 1024 1024" version="1.1" xmlns="http://www.w3.org/2000/svg"><path fill="#333333" d="M812.999111 135.111111a92.444444 92.444444 0 0 1 91.989333 83.342222l0.369778 5.262223 23.694222 568.888888a92.529778 92.529778 0 0 1-83.939555 95.857778l-5.319111 0.369778-3.128889 0.056889H187.335111a92.444444 92.444444 0 0 1-92.302222-87.210667l-0.142222-6.656 23.779555-571.306666a92.444444 92.444444 0 0 1 87.096889-88.462223l5.262222-0.142222h601.998223z m0 71.111111H211.000889a21.333333 21.333333 0 0 0-20.992 17.635556l-0.284445 2.816L165.944889 796.444444c0 10.808889 8.021333 19.712 18.432 21.134223l2.901333 0.199111h650.268445a21.333333 21.333333 0 0 0 20.366222-19.342222l0.056889-2.872889-23.694222-568.888889a21.333333 21.333333 0 0 0-18.488889-20.280889l-2.844445-0.170667z m-144.554667 128c19.626667 0 35.555556 15.928889 35.555556 35.555556 0 98.986667-86.670222 177.777778-192 177.777778s-192-78.791111-192-177.777778a35.555556 35.555556 0 0 1 71.111111 0c0 58.112 53.418667 106.666667 120.888889 106.666666 65.422222 0 117.646222-45.653333 120.746667-101.404444L632.888889 369.777778c0-19.626667 15.928889-35.555556 35.555555-35.555556z"  /></svg>