<?xml version="1.0" standalone="no"?><!DOCTYPE svg PUBLIC "-//W3C//DTD SVG 1.1//EN" "http://www.w3.org/Graphics/SVG/1.1/DTD/svg11.dtd"><svg class="icon" width="200px" height="200.00px" viewBox="0 0 1024 1024" version="1.1" xmlns="http://www.w3.org/2000/svg"><path fill="#333333" d="M606.293333 108.088889l5.404445 4.636444 336.497778 301.681778c23.409778 20.992 9.927111 59.164444-20.309334 61.895111l-3.441778 0.142222h-21.333333V810.666667a92.444444 92.444444 0 0 1-87.210667 92.302222l-5.233777 0.142222h-206.904889a35.555556 35.555556 0 0 1-35.384889-31.914667l-0.170667-3.640888v-187.534223a35.555556 35.555556 0 0 0-31.914666-35.384889l-3.640889-0.170666h-41.301334a35.555556 35.555556 0 0 0-35.356444 31.914666l-0.199111 3.640889V867.555556a35.555556 35.555556 0 0 1-31.914667 35.384888l-3.640889 0.170667H213.333333a92.444444 92.444444 0 0 1-92.302222-87.210667L120.888889 810.666667V476.444444H99.555556c-31.459556 0-46.904889-37.432889-26.168889-59.619555l2.446222-2.417778 336.497778-301.681778a149.333333 149.333333 0 0 1 193.962666-4.608zM463.928889 162.247111l-4.152889 3.470222-267.804444 240.014223 0.085333 30.264888 0.142222 1.28 0.199111 3.640889c0 1.706667-0.113778 3.384889-0.341333 5.006223L192 810.666667c0 10.808889 8.021333 19.712 18.432 21.134222l2.901333 0.199111h171.349334v-151.978667a106.666667 106.666667 0 0 1 101.006222-106.524444l5.688889-0.142222h41.244444a106.666667 106.666667 0 0 1 106.552889 100.977777l0.142222 5.688889-0.028444 151.978667H810.666667a21.333333 21.333333 0 0 0 21.134222-18.432l0.199111-2.901333-0.056889-364.828445a35.84 35.84 0 0 1 0-9.955555l0.028445-30.151111-267.747556-240.071112a78.222222 78.222222 0 0 0-100.295111-3.441777z"  /></svg>