<?xml version="1.0" standalone="no"?><!DOCTYPE svg PUBLIC "-//W3C//DTD SVG 1.1//EN" "http://www.w3.org/Graphics/SVG/1.1/DTD/svg11.dtd"><svg class="icon" width="200px" height="200.00px" viewBox="0 0 1024 1024" version="1.1" xmlns="http://www.w3.org/2000/svg"><path fill="#333333" d="M483.555556 106.666667a92.444444 92.444444 0 0 1 92.302222 87.210666L576 199.111111v143.160889l357.376 92.643556a35.555556 35.555556 0 0 1-14.279111 69.575111l-1.763556-0.398223V817.777778H938.666667a35.555556 35.555556 0 0 1 3.640889 70.940444L938.666667 888.888889H85.333333a35.555556 35.555556 0 0 1-3.640889-70.940445L85.333333 817.777778h21.333334V199.111111a92.444444 92.444444 0 0 1 87.210666-92.302222L199.111111 106.666667h284.444445z m0 71.111111H199.111111a21.333333 21.333333 0 0 0-21.134222 18.432L177.777778 199.111111v618.666667h327.111111V199.111111a21.333333 21.333333 0 0 0-18.432-21.134222L483.555556 177.777778z m92.444444 237.909333V817.777778h270.222222V485.745778l-270.222222-70.058667zM711.111111 533.333333c18.403556 0 33.564444 13.994667 35.384889 31.914667l0.170667 3.640889v113.777778a35.555556 35.555556 0 0 1-70.940445 3.640889L675.555556 682.666667v-113.777778c0-19.626667 15.928889-35.555556 35.555555-35.555556z m-312.888889 99.555556a35.555556 35.555556 0 0 1 3.640889 70.940444L398.222222 704h-113.777778a35.555556 35.555556 0 0 1-3.640888-70.940444L284.444444 632.888889h113.777778z m0-170.666667a35.555556 35.555556 0 0 1 3.640889 70.940445L398.222222 533.333333h-113.777778a35.555556 35.555556 0 0 1-3.640888-70.940444L284.444444 462.222222h113.777778z m0-170.666666a35.555556 35.555556 0 0 1 3.640889 70.940444L398.222222 362.666667h-113.777778a35.555556 35.555556 0 0 1-3.640888-70.940445L284.444444 291.555556h113.777778z"  /></svg>