<?xml version="1.0" standalone="no"?><!DOCTYPE svg PUBLIC "-//W3C//DTD SVG 1.1//EN" "http://www.w3.org/Graphics/SVG/1.1/DTD/svg11.dtd"><svg class="icon" width="200px" height="200.00px" viewBox="0 0 1024 1024" version="1.1" xmlns="http://www.w3.org/2000/svg"><path fill="#333333" d="M577.365333 398.677333l2.929778 2.56 139.946667 136.760889a133.859556 133.859556 0 0 1 4.721778 187.306667l-4.778667 4.920889-180.906667 176.156444c-52.138667 50.915556-135.338667 52.48-189.383111 4.579556l-4.977778-4.636445-154.936889-152.035555a133.888 133.888 0 0 1 0-192.170667 35.555556 35.555556 0 0 1 52.337778 48.014222l-2.616889 2.844445c-24.519111 23.921778-25.6 61.724444-3.299555 86.983111l3.328 3.527111 154.936889 152.035556a68.465778 68.465778 0 0 0 91.278222 3.271111l3.669333-3.328 180.906667-176.156445c24.519111-23.921778 25.6-61.724444 3.356444-86.926222l-3.356444-3.527111-139.946667-136.760889a35.555556 35.555556 0 0 1 46.791111-53.418667zM674.332444 113.777778l4.977778 4.721778L834.275556 273.066667a137.301333 137.301333 0 0 1 0 194.56 35.555556 35.555556 0 0 1-52.821334-47.502223l2.616889-2.844444c24.803556-24.746667 25.941333-64.142222 3.356445-90.225778l-3.384889-3.640889-154.965334-154.595555a66.901333 66.901333 0 0 0-90.737777-3.384889l-3.640889 3.413333-180.992 180.337778a66.190222 66.190222 0 0 0-3.356445 90.197333l3.356445 3.640889 158.037333 157.582222a35.555556 35.555556 0 0 1-47.331556 52.935112l-2.872888-2.56-158.037334-157.582223a137.301333 137.301333 0 0 1-4.750222-189.582222l4.750222-4.977778 180.992-180.366222a138.012444 138.012444 0 0 1 189.838222-4.721778z"  /></svg>