<?xml version="1.0" standalone="no"?><!DOCTYPE svg PUBLIC "-//W3C//DTD SVG 1.1//EN" "http://www.w3.org/Graphics/SVG/1.1/DTD/svg11.dtd"><svg class="icon" width="200px" height="200.00px" viewBox="0 0 1024 1024" version="1.1" xmlns="http://www.w3.org/2000/svg"><path fill="#333333" d="M778.524444 188.728889c144.867556 145.009778 147.114667 378.709333 6.769778 526.506667l-6.769778 6.968888-221.240888 221.44a64 64 0 0 1-86.840889 3.441778l-3.697778-3.413333L245.475556 722.204444c-147.143111-147.342222-147.143111-386.161778 0-533.475555 147.2-147.342222 385.848889-147.342222 533.048888 0zM295.822222 238.990222c-117.361778 117.447111-119.409778 306.631111-6.200889 426.581334l6.172445 6.371555L512 888.32l216.234667-216.405333c117.333333-117.475556 119.381333-306.631111 6.172444-426.609778l-6.172444-6.343111c-119.409778-119.552-313.002667-119.552-432.412445 0zM512 291.555556a163.555556 163.555556 0 1 1 0 327.111111 163.555556 163.555556 0 0 1 0-327.111111z m0 71.111111a92.444444 92.444444 0 1 0 0 184.888889 92.444444 92.444444 0 0 0 0-184.888889z"  /></svg>