<?xml version="1.0" standalone="no"?><!DOCTYPE svg PUBLIC "-//W3C//DTD SVG 1.1//EN" "http://www.w3.org/Graphics/SVG/1.1/DTD/svg11.dtd"><svg class="icon" width="200px" height="200.00px" viewBox="0 0 1024 1024" version="1.1" xmlns="http://www.w3.org/2000/svg"><path fill="#333333" d="M512 92.444444c173.966222 0 315.505778 138.808889 319.886222 311.751112l0.113778 8.248888v175.047112l54.414222 90.680888c3.982222 6.656 6.712889 13.937778 8.078222 21.447112l0.796445 5.688888 0.284444 5.802667a64 64 0 0 1-59.648 63.857778l-4.380444 0.142222H661.333333v7.111111a149.333333 149.333333 0 0 1-298.552889 6.144l-0.113777-6.144v-7.111111H192.455111a64 64 0 0 1-27.847111-6.371555l-5.063111-2.759112a64 64 0 0 1-24.177778-83.797333l2.218667-3.982222 54.414222-90.737778V412.444444c0-171.150222 134.371556-310.926222 303.388444-319.573333l8.362667-0.312889 8.248889-0.113778z m78.222222 682.666667h-156.444444v7.111111a78.222222 78.222222 0 0 0 156.302222 4.778667l0.142222-4.778667v-7.111111zM512 163.555556a248.888889 248.888889 0 0 0-248.775111 241.550222l-0.113778 7.338666V597.333333c0 5.148444-1.137778 10.24-3.271111 14.876445l-1.792 3.413333-53.048889 88.376889h613.973333l-53.020444-88.376889a35.498667 35.498667 0 0 1-4.238222-10.666667l-0.625778-3.783111L760.888889 597.333333v-184.888889A248.888889 248.888889 0 0 0 512 163.555556z"  /></svg>