<?xml version="1.0" standalone="no"?><!DOCTYPE svg PUBLIC "-//W3C//DTD SVG 1.1//EN" "http://www.w3.org/Graphics/SVG/1.1/DTD/svg11.dtd"><svg class="icon" width="200px" height="200.00px" viewBox="0 0 1024 1024" version="1.1" xmlns="http://www.w3.org/2000/svg"><path fill="#333333" d="M185.6 119.694222a86.129778 86.129778 0 0 1 120.604444-17.066666c28.672 21.560889 59.448889 50.915556 92.444445 88.092444 33.194667 37.376 57.571556 71.68 73.102222 103.139556a86.243556 86.243556 0 0 1-28.245333 108.856888l-4.494222 2.958223-4.835556 2.730666-32.796444 13.084445c13.852444 24.888889 35.271111 50.574222 57.287111 74.638222l8.248889 8.96 16.384 17.351111 8.874666 9.102222 9.472 9.244445 17.351111 16.355555c23.637333 22.016 49.180444 44.373333 74.183111 59.989334l9.386667 5.518222 13.084445-32.824889a86.158222 86.158222 0 0 1 105.073777-41.528889l4.778667 1.820445 4.693333 2.161777c31.488 15.530667 65.763556 39.907556 103.139556 73.102223 37.205333 32.995556 66.56 63.744 88.120889 92.444444 26.083556 34.645333 22.129778 82.915556-9.187556 113.720889l-4.039111 3.754667-5.973333 4.636444-87.808 61.923556a201.500444 201.500444 0 0 1-183.751111 25.116444c-89.201778-31.772444-183.011556-94.378667-282.026667-187.619556l-12.401778-11.804444-15.758222-15.388444-12.145778-12.231112C201.955556 591.985778 131.413333 489.955556 96.995556 393.386667a201.585778 201.585778 0 0 1 16.384-170.183111l4.266666-6.968889 4.465778-6.570667 63.459556-89.941333z m-5.376 130.929778l-2.730667 4.067556a130.588444 130.588444 0 0 0-13.511111 114.773333c29.297778 82.119111 90.168889 171.918222 183.438222 268.686222l11.349334 11.633778 11.434666 11.491555 15.416889 15.075556c97.080889 93.525333 186.88 154.396444 268.942223 183.637333a130.389333 130.389333 0 0 0 113.038222-12.344889l5.859555-3.896888 86.613334-61.098667 1.991111-1.564445 1.479111-1.479111a15.160889 15.160889 0 0 0 2.446222-16.867555l-1.365333-2.190222c-18.375111-24.433778-44.515556-51.825778-78.506667-82.005334-30.350222-26.965333-57.457778-46.648889-79.559111-58.538666l-5.916444-3.043556-2.787556-1.308444a15.018667 15.018667 0 0 0-17.720889 4.778666l-0.369778 0.540445-11.178666 28.046222a71.111111 71.111111 0 0 1-96.426667 37.944889l-4.181333-2.190222c-28.330667-15.758222-55.267556-36.892444-89.144889-67.925334l-8.618667-7.964444-18.147555-17.123556-10.837334-10.609778-9.671111-9.927111-16.64-17.635555c-35.157333-37.717333-58.595556-66.787556-75.662222-97.479111a71.111111 71.111111 0 0 1 31.402667-98.702223l4.323555-1.905777 27.648-11.093334 1.223111-0.853333a15.132444 15.132444 0 0 0 5.063111-15.872l-0.938666-2.360889c-12.344889-25.031111-33.080889-54.243556-62.492445-87.381333-30.151111-33.962667-57.571556-60.103111-82.005333-78.478222-5.916444-4.437333-13.994667-3.868444-18.346667-0.256l-1.422222 1.479111-63.488 89.941333z"  /></svg>