<?xml version="1.0" standalone="no"?><!DOCTYPE svg PUBLIC "-//W3C//DTD SVG 1.1//EN" "http://www.w3.org/Graphics/SVG/1.1/DTD/svg11.dtd"><svg class="icon" width="200px" height="200.00px" viewBox="0 0 1024 1024" version="1.1" xmlns="http://www.w3.org/2000/svg"><path fill="#333333" d="M725.333333 576a206.222222 206.222222 0 0 1 206.108445 199.395556l0.113778 6.826666v85.333334a35.555556 35.555556 0 0 1-31.914667 35.384888l-3.640889 0.170667h-768a35.555556 35.555556 0 0 1-35.384889-31.914667L92.444444 867.555556v-85.333334a206.222222 206.222222 0 0 1 199.395556-206.108444l6.826667-0.113778h426.666666z m0 71.111111h-426.666666a135.111111 135.111111 0 0 0-134.968889 128.938667l-0.142222 6.172444v49.777778h696.888888V782.222222a135.111111 135.111111 0 0 0-122.823111-134.542222l-6.115555-0.426667-6.172445-0.142222zM512 92.444444a220.444444 220.444444 0 1 1 0 440.888889 220.444444 220.444444 0 0 1 0-440.888889z m0 71.111112a149.333333 149.333333 0 1 0 0 298.666666 149.333333 149.333333 0 0 0 0-298.666666z"  /></svg>