<?xml version="1.0" standalone="no"?><!DOCTYPE svg PUBLIC "-//W3C//DTD SVG 1.1//EN" "http://www.w3.org/Graphics/SVG/1.1/DTD/svg11.dtd"><svg class="icon" width="200px" height="200.00px" viewBox="0 0 1024 1024" version="1.1" xmlns="http://www.w3.org/2000/svg"><path fill="#333333" d="M341.333333 618.666667a64 64 0 0 1 63.857778 59.619555l0.142222 4.380445v142.222222a64 64 0 0 1-59.619555 63.857778L341.333333 888.888889H199.111111a64 64 0 0 1-63.857778-59.619556L135.111111 824.888889v-142.222222a64 64 0 0 1 59.619556-63.857778L199.111111 618.666667h142.222222z m483.555556 0a64 64 0 0 1 63.857778 59.619555l0.142222 4.380445v142.222222a64 64 0 0 1-59.619556 63.857778L824.888889 888.888889h-142.222222a64 64 0 0 1-63.857778-59.619556L618.666667 824.888889v-142.222222a64 64 0 0 1 59.619555-63.857778L682.666667 618.666667h142.222222z m-277.333333 21.333333v227.555556h-71.111112v-227.555556h71.111112z m-213.333334 49.777778h-128v128h128v-128z m483.555556 0h-128v128h128v-128zM455.111111 135.111111a92.444444 92.444444 0 0 1 92.302222 87.210667L547.555556 227.555556v227.555555a92.444444 92.444444 0 0 1-87.210667 92.302222L455.111111 547.555556H227.555556a92.444444 92.444444 0 0 1-92.302223-87.210667L135.111111 455.111111V227.555556a92.444444 92.444444 0 0 1 87.210667-92.302223L227.555556 135.111111h227.555555z m412.444445 341.333333v71.111112h-227.555556v-71.111112h227.555556zM455.111111 206.222222H227.555556a21.333333 21.333333 0 0 0-21.134223 18.432L206.222222 227.555556v227.555555c0 10.808889 8.021333 19.712 18.432 21.134222L227.555556 476.444444h227.555555a21.333333 21.333333 0 0 0 21.134222-18.432L476.444444 455.111111V227.555556a21.333333 21.333333 0 0 0-21.333333-21.333334z m369.777778-71.111111a64 64 0 0 1 63.857778 59.619556L888.888889 199.111111v142.222222a64 64 0 0 1-59.619556 63.857778L824.888889 405.333333h-142.222222a64 64 0 0 1-63.857778-59.619555L618.666667 341.333333V199.111111a64 64 0 0 1 59.619555-63.857778L682.666667 135.111111h142.222222zM369.777778 284.444444a28.444444 28.444444 0 0 1 28.444444 28.444445v56.888889a28.444444 28.444444 0 0 1-28.444444 28.444444h-56.888889a28.444444 28.444444 0 0 1-28.444445-28.444444v-56.888889a28.444444 28.444444 0 0 1 28.444445-28.444445h56.888889z m448-78.222222h-128v128h128v-128z"  /></svg>