<?xml version="1.0" standalone="no"?><!DOCTYPE svg PUBLIC "-//W3C//DTD SVG 1.1//EN" "http://www.w3.org/Graphics/SVG/1.1/DTD/svg11.dtd"><svg class="icon" width="200px" height="200.00px" viewBox="0 0 1024 1024" version="1.1" xmlns="http://www.w3.org/2000/svg"><path fill="#333333" d="M512 78.222222c239.559111 0 433.777778 194.218667 433.777778 433.777778S751.559111 945.777778 512 945.777778 78.222222 751.559111 78.222222 512 272.440889 78.222222 512 78.222222z m0 71.111111C311.694222 149.333333 149.333333 311.694222 149.333333 512S311.694222 874.666667 512 874.666667 874.666667 712.305778 874.666667 512 712.305778 149.333333 512 149.333333zM512 654.222222a42.666667 42.666667 0 1 1 0 85.333334 42.666667 42.666667 0 0 1 0-85.333334z m0-376.888889c141.226667 0 196.380444 155.932444 96.284444 231.879111l-4.807111 3.498667c-21.731556 15.189333-37.461333 28.757333-47.018666 40.220445-6.741333 8.106667-8.988444 13.169778-8.931556 14.677333a35.555556 35.555556 0 1 1-71.054222 2.56c-1.422222-39.338667 28.785778-75.576889 86.272-115.768889 48.668444-34.019556 24.234667-105.955556-50.744889-105.955556-48.611556 0-71.594667 20.110222-78.592 69.034667a35.555556 35.555556 0 0 1-70.371556-10.069333c11.946667-83.825778 64.853333-130.076444 148.963556-130.076445z"  /></svg>