<?xml version="1.0" standalone="no"?><!DOCTYPE svg PUBLIC "-//W3C//DTD SVG 1.1//EN" "http://www.w3.org/Graphics/SVG/1.1/DTD/svg11.dtd"><svg class="icon" width="200px" height="200.00px" viewBox="0 0 1024 1024" version="1.1" xmlns="http://www.w3.org/2000/svg"><path fill="#333333" d="M227.555556 888.888889a92.444444 92.444444 0 0 1-92.302223-87.210667L135.111111 796.444444V455.111111a92.444444 92.444444 0 0 1 87.210667-92.302222L227.555556 362.666667l116.536888 0.028444a376.775111 376.775111 0 0 1 56.092445-83.911111l8.618667-9.443556 131.555555-139.150222a108.686222 108.686222 0 0 1 130.816-20.878222 100.352 100.352 0 0 1 48.014222 117.902222l-1.792 5.205334-42.837333 115.399111 153.230222-0.938667a120.888889 120.888889 0 0 1 121.031111 108.487111l0.426667 5.774222 0.199111 5.859556c0.028444 7.765333-0.654222 15.530667-2.104889 23.153778l-1.706666 7.594666-71.395556 278.840889a149.333333 149.333333 0 0 1-138.069333 112.156445l-6.570667 0.142222H227.555556z m78.222222-360.618667c0-32.142222 4.096-63.857778 12.032-94.464L227.555556 433.777778a21.333333 21.333333 0 0 0-21.134223 18.432L206.222222 455.111111v341.333333c0 10.808889 8.021333 19.712 18.432 21.134223L227.555556 817.777778h78.222222V528.270222zM637.269333 171.804444a37.575111 37.575111 0 0 0-42.410666 4.522667l-2.816 2.702222-131.555556 139.121778a305.777778 305.777778 0 0 0-83.456 200.334222l-0.142222 9.756445V817.777778h352.711111a78.222222 78.222222 0 0 0 72.533333-48.981334l1.820445-4.977777 1.422222-4.835556 71.395556-278.869333a49.777778 49.777778 0 0 0-44.458667-62.008889l-4.067556-0.113778-204.686222 1.28a35.555556 35.555556 0 0 1-34.616889-44.572444l1.052445-3.356445 60.728889-163.640889a29.240889 29.240889 0 0 0-13.454223-35.868444z"  /></svg>