<?xml version="1.0" standalone="no"?><!DOCTYPE svg PUBLIC "-//W3C//DTD SVG 1.1//EN" "http://www.w3.org/Graphics/SVG/1.1/DTD/svg11.dtd"><svg class="icon" width="200px" height="200.00px" viewBox="0 0 1024 1024" version="1.1" xmlns="http://www.w3.org/2000/svg"><path fill="#333333" d="M512 78.222222c239.559111 0 433.777778 194.218667 433.777778 433.777778S751.559111 945.777778 512 945.777778 78.222222 751.559111 78.222222 512 272.440889 78.222222 512 78.222222z m0 71.111111C311.694222 149.333333 149.333333 311.694222 149.333333 512S311.694222 874.666667 512 874.666667 874.666667 712.305778 874.666667 512 712.305778 149.333333 512 149.333333z m165.347556 236.088889c13.937778 11.946667 16.355556 32.312889 6.257777 47.075556l-2.389333 3.072-195.640889 228.266666-140.942222-140.913777a35.555556 35.555556 0 0 1 47.388444-52.878223l2.901334 2.588445 86.584889 86.613333 145.720888-169.927111a35.555556 35.555556 0 0 1 50.119112-3.868444z"  /></svg>