<?xml version="1.0" standalone="no"?><!DOCTYPE svg PUBLIC "-//W3C//DTD SVG 1.1//EN" "http://www.w3.org/Graphics/SVG/1.1/DTD/svg11.dtd"><svg class="icon" width="200px" height="200.00px" viewBox="0 0 1024 1024" version="1.1" xmlns="http://www.w3.org/2000/svg"><path fill="#333333" d="M911.132444 519.111111l3.612445 0.284445a35.555556 35.555556 0 0 1 30.72 39.822222C918.328889 771.128889 732.728889 931.555556 512 931.555556c-220.728889 0-406.300444-160.426667-433.493333-372.337778a35.555556 35.555556 0 0 1 70.542222-9.102222c22.613333 176.213333 177.749333 310.328889 362.951111 310.328888s340.337778-134.115556 362.951111-310.328888a35.555556 35.555556 0 0 1 36.181333-31.004445zM512 94.179556c18.403556 0 33.564444 13.994667 35.384889 31.914666l0.170667 3.640889v420.124445l123.960888-133.461334a35.555556 35.555556 0 0 1 47.473778-4.181333l2.787556 2.332444c13.482667 12.515556 15.075556 33.080889 4.209778 47.445334l-2.360889 2.787555-210.944 227.185778-210.944-227.185778a35.555556 35.555556 0 0 1 49.493333-50.915555l2.616889 2.56 122.595555 131.982222V129.706667c0-19.626667 15.928889-35.555556 35.555556-35.555556z"  /></svg>