<?xml version="1.0" standalone="no"?><!DOCTYPE svg PUBLIC "-//W3C//DTD SVG 1.1//EN" "http://www.w3.org/Graphics/SVG/1.1/DTD/svg11.dtd"><svg class="icon" width="200px" height="196.92px" viewBox="0 0 1040 1024" version="1.1" xmlns="http://www.w3.org/2000/svg"><path fill="#333333" d="M853.333333 647.111111c18.403556 0 33.564444 13.994667 35.384889 31.914667l0.170667 3.640889v113.777777a92.444444 92.444444 0 0 1-87.210667 92.302223L796.444444 888.888889h-113.777777a35.555556 35.555556 0 0 1-3.640889-70.940445L682.666667 817.777778h113.777777a21.333333 21.333333 0 0 0 21.134223-18.432L817.777778 796.444444v-113.777777c0-19.626667 15.928889-35.555556 35.555555-35.555556z m-682.666666 0c18.403556 0 33.564444 13.994667 35.384889 31.914667L206.222222 682.666667v99.555555l0.170667 3.640889a35.555556 35.555556 0 0 0 31.744 31.744l3.640889 0.170667H341.333333l3.640889 0.170666a35.555556 35.555556 0 0 1 0 70.769778L341.333333 888.888889H241.777778l-5.688889-0.142222a106.666667 106.666667 0 0 1-100.835556-100.864L135.111111 782.222222V682.666667l0.170667-3.640889A35.555556 35.555556 0 0 1 170.666667 647.111111z m739.555555-170.666667a35.555556 35.555556 0 0 1 3.640889 70.940445L910.222222 547.555556H113.777778a35.555556 35.555556 0 0 1-3.640889-70.940445L113.777778 476.444444h796.444444z m-113.777778-341.333333l5.233778 0.142222a92.444444 92.444444 0 0 1 87.04 87.04L888.888889 227.555556v113.777777l-0.170667 3.640889a35.555556 35.555556 0 0 1-70.769778 0L817.777778 341.333333V227.555556l-0.199111-2.901334a21.333333 21.333333 0 0 0-18.232889-18.232889L796.444444 206.222222h-113.777777l-3.640889-0.170666a35.555556 35.555556 0 0 1 0-70.769778L682.666667 135.111111h113.777777z m-455.111111 0a35.555556 35.555556 0 0 1 3.640889 70.940445L341.333333 206.222222H227.555556a21.333333 21.333333 0 0 0-21.134223 18.432L206.222222 227.555556v113.777777a35.555556 35.555556 0 0 1-70.940444 3.640889L135.111111 341.333333V227.555556a92.444444 92.444444 0 0 1 87.210667-92.302223L227.555556 135.111111h113.777777z"  /></svg>