<?xml version="1.0" standalone="no"?><!DOCTYPE svg PUBLIC "-//W3C//DTD SVG 1.1//EN" "http://www.w3.org/Graphics/SVG/1.1/DTD/svg11.dtd"><svg class="icon" width="200px" height="200.00px" viewBox="0 0 1024 1024" version="1.1" xmlns="http://www.w3.org/2000/svg"><path fill="#333333" d="M469.333333 106.666667c200.305778 0 362.666667 162.360889 362.666667 362.666666 0 87.324444-30.890667 167.480889-82.318222 230.087111l157.240889 157.212445a35.555556 35.555556 0 0 1-47.388445 52.878222l-2.901333-2.588444-157.212445-157.240889A361.187556 361.187556 0 0 1 469.333333 832c-200.305778 0-362.666667-162.360889-362.666666-362.666667S269.027556 106.666667 469.333333 106.666667z m0 71.111111c-160.995556 0-291.555556 130.56-291.555555 291.555555s130.56 291.555556 291.555555 291.555556 291.555556-130.56 291.555556-291.555556S630.328889 177.777778 469.333333 177.777778z"  /></svg>