<?xml version="1.0" standalone="no"?><!DOCTYPE svg PUBLIC "-//W3C//DTD SVG 1.1//EN" "http://www.w3.org/Graphics/SVG/1.1/DTD/svg11.dtd"><svg class="icon" width="200px" height="200.00px" viewBox="0 0 1024 1024" version="1.1" xmlns="http://www.w3.org/2000/svg"><path fill="#333333" d="M816.583111 657.351111a42.666667 42.666667 0 0 1-5.859555 57.059556l-3.185778 2.616889L512 934.769778 216.462222 717.027556a42.666667 42.666667 0 0 1 47.217778-70.997334l3.413333 2.275556L512 828.785778l244.906667-180.48a42.666667 42.666667 0 0 1 59.676444 9.045333zM512 89.230222l295.537778 217.742222a42.666667 42.666667 0 0 1-47.217778 70.997334l-3.413333-2.275556L512 195.185778l-244.906667 180.508444a42.666667 42.666667 0 0 1-57.059555-5.859555l-2.616889-3.185778a42.666667 42.666667 0 0 1 5.859555-57.059556l3.185778-2.616889L512 89.230222z"  /></svg>