<?xml version="1.0" standalone="no"?><!DOCTYPE svg PUBLIC "-//W3C//DTD SVG 1.1//EN" "http://www.w3.org/Graphics/SVG/1.1/DTD/svg11.dtd"><svg class="icon" width="200px" height="200.00px" viewBox="0 0 1024 1024" version="1.1" xmlns="http://www.w3.org/2000/svg"><path fill="#333333" d="M418.986667 111.502222a92.444444 92.444444 0 0 1 156.814222 60.131556l0.199111 6.001778v664.945777a92.444444 92.444444 0 0 1-153.799111 69.12l-4.494222-4.266666-183.694223-186.368H184.888889a92.444444 92.444444 0 0 1-91.875556-82.033778l-0.426666-5.176889-0.142223-5.233778v-244.622222a92.444444 92.444444 0 0 1 87.210667-92.302222l5.233778-0.142222h49.521778l184.604444-180.053334z m77.482666 49.152a21.333333 21.333333 0 0 0-25.116444-0.512l-2.702222 2.247111-186.652445 182.101334a64 64 0 0 1-39.139555 17.92l-5.546667 0.256H184.888889a21.333333 21.333333 0 0 0-21.134222 18.432l-0.199111 2.901333v244.622222c0 10.808889 8.021333 19.712 18.432 21.134222l2.901333 0.199112h52.110222c15.217778 0 29.866667 5.404444 41.415111 15.217777l4.152889 3.868445 185.799111 188.501333a21.333333 21.333333 0 0 0 36.323556-12.088889l0.199111-2.872889V177.635556a21.333333 21.333333 0 0 0-3.953778-12.344889l-2.104889-2.56-2.360889-2.076445z m294.940445 54.357334c181.703111 158.890667 187.022222 416.426667 13.966222 581.205333l-7.310222 6.826667-6.4 5.688888a35.555556 35.555556 0 0 1-50.090667-50.289777l2.759111-2.759111 6.115556-5.461334c148.764444-135.537778 146.432-348.501333-5.859556-481.678222a35.555556 35.555556 0 1 1 46.819556-53.532444z m-84.48 142.990222c87.125333 81.180444 90.965333 212.167111 9.984 298.040889l-5.404445 5.546666-4.209777 4.039111a35.555556 35.555556 0 0 1-51.911112-48.440888l2.645334-2.844445 3.811555-3.640889c57.457778-56.888889 56.064-145.237333-3.413333-200.704a35.555556 35.555556 0 0 1 48.469333-51.996444z"  /></svg>