<?xml version="1.0" standalone="no"?><!DOCTYPE svg PUBLIC "-//W3C//DTD SVG 1.1//EN" "http://www.w3.org/Graphics/SVG/1.1/DTD/svg11.dtd"><svg class="icon" width="200px" height="200.00px" viewBox="0 0 1024 1024" version="1.1" xmlns="http://www.w3.org/2000/svg"><path fill="#333333" d="M793.031111 120.888889a64 64 0 0 1 57.372445 35.584l16.270222 33.166222 14.705778 30.72 8.96 19.114667 8.248888 18.090666 7.623112 17.038223 6.912 16.014222 6.257777 15.047111 5.546667 14.023111 4.920889 13.084445 4.266667 12.088888c7.793778 23.239111 11.662222 40.846222 11.662222 53.361778 0 56.035556-28.16 105.443556-71.082667 134.912L874.666667 810.666667a92.444444 92.444444 0 0 1-87.210667 92.302222l-5.233778 0.142222h-540.444444a92.444444 92.444444 0 0 1-92.302222-87.210667L149.333333 810.666667v-277.504A163.384889 163.384889 0 0 1 78.222222 398.222222c0-12.515556 3.868444-30.122667 11.662222-53.361778l4.266667-12.117333 2.360889-6.4 5.262222-13.539555 5.888-14.535112 6.599111-15.530666 7.253334-16.526222 7.936-17.578667 8.590222-18.602667 9.301333-19.655111 15.246222-31.516444 11.008-22.385778A64 64 0 0 1 230.968889 120.888889z m-139.349333 378.453333l-3.754667 4.039111a191.829333 191.829333 0 0 1-130.332444 58.254223L512 561.777778a191.829333 191.829333 0 0 1-137.955556-58.396445l-3.754666-4.039111-2.474667 3.157334a163.555556 163.555556 0 0 1-119.239111 59.164444l-6.798222 0.113778c-7.224889 0-14.336-0.455111-21.333334-1.365334V810.666667c0 10.808889 8.021333 19.712 18.432 21.134222l2.901334 0.199111h540.444444a21.333333 21.333333 0 0 0 21.134222-18.432l0.199112-2.901333v-250.282667a163.527111 163.527111 0 0 1-147.399112-57.912889l-2.474666-3.128889zM788.622222 192H235.349333l-12.686222 25.941333-17.521778 36.693334-11.605333 25.059555-6.997333 15.530667-6.4 14.535111-5.831111 13.568-7.594667 18.432-4.295111 11.008-3.697778 9.955556c-0.568889 1.592889-1.137778 3.128889-1.621333 4.608l-2.787556 8.362666c-0.853333 2.616889-1.564444 5.063111-2.161778 7.310222l-1.564444 6.200889c-0.625778 2.816-1.024 5.205333-1.166222 7.196445L149.333333 398.222222a92.444444 92.444444 0 0 0 182.044445 22.869334 35.555556 35.555556 0 0 1 11.946666-18.773334l1.223112-0.995555a35.555556 35.555556 0 0 1 55.466666 14.08 120.917333 120.917333 0 0 0 223.971556 0 35.555556 35.555556 0 0 1 55.182222-14.336l1.194667 0.967111c6.058667 4.835556 10.353778 11.52 12.231111 19.029333A92.501333 92.501333 0 0 0 874.666667 398.222222c0-2.816-0.654222-6.826667-1.934223-11.975111l-1.877333-6.769778a233.443556 233.443556 0 0 0-1.137778-3.783111l-4.437333-12.942222-3.697778-9.955556-6.684444-16.924444-8.049778-19.2-6.115556-14.051556-10.24-22.926222-11.633777-25.031111-17.521778-36.693333-12.714667-25.969778z"  /></svg>