<svg width="94" height="24" viewBox="0 0 94 24" fill="none" xmlns="http://www.w3.org/2000/svg">
<path fillRule="evenodd" clipRule="evenodd" d="M72.8423 7.8001C74.5262 7.8001 76.0402 8.53861 77.1392 9.74047L77.139 8.1001H79.8509V21.0001H77.139L77.1393 19.4122C76.0514 20.5937 74.5481 21.3138 72.8423 21.2999C69.3703 21.2716 66.894 18.2284 66.894 14.4745C66.894 10.7205 69.4439 7.8001 72.8423 7.8001ZM93.4093 12.301L93.4105 12.3001V21.0001H90.6986V14.6737L90.6975 14.674V14.204C90.6975 13.3183 90.6474 12.7013 90.5471 12.3531C90.5471 12.3531 90.1566 10.5063 88.1919 10.6795C88.1919 10.6795 85.8642 10.8446 85.6104 13.6272C85.6077 13.6487 85.5911 13.8014 85.5763 14.4102L85.5761 21.0001H82.8642V8.1001H85.5761L85.5762 9.4105C86.5127 8.62695 87.4404 8.12565 88.3594 7.90661C88.3594 7.90661 93.2641 6.7153 93.4093 12.301ZM42.1854 4.8001V7.47486L38.8708 7.4746V21.0001H36.1589V7.4746L32.543 7.47486V4.8001H42.1854ZM55.745 3.6001V8.1001H58.1556V10.812L55.745 10.8118V21.0001H53.033V10.8118L51.2251 10.812V8.1001H53.033V3.6001H55.745ZM47.9673 8.45096V20.986H45.4161L45.4161 9.26658L47.9673 8.45096ZM63.9375 8.45096V20.986H61.3863L61.3863 9.26658L63.9375 8.45096ZM73.2178 10.5001C70.9043 10.5001 69.5575 12.2876 69.6072 14.6066C69.6569 16.9256 71.0446 18.6001 73.2178 18.6001C75.391 18.6001 76.8377 16.9425 76.8377 14.6236C76.8377 12.3046 75.5314 10.5001 73.2178 10.5001ZM46.7052 3.6001C47.7037 3.6001 48.5132 4.40599 48.5132 5.4001C48.5132 6.39421 47.7037 7.2001 46.7052 7.2001C45.7067 7.2001 44.8973 6.39421 44.8973 5.4001C44.8973 4.40599 45.7067 3.6001 46.7052 3.6001ZM62.6754 3.6001C63.6739 3.6001 64.4834 4.40599 64.4834 5.4001C64.4834 6.39421 63.6739 7.2001 62.6754 7.2001C61.6769 7.2001 60.8675 6.39421 60.8675 5.4001C60.8675 4.40599 61.6769 3.6001 62.6754 3.6001Z" fill="#212121"/>
<path d="M12.053 0C15.2737 0 18.1993 1.26207 20.3615 3.31822L6.85858 7.69526L6.79982 7.71598C6.33602 7.89304 6.02649 8.33736 6.02649 8.83606V13.6743L6.02832 13.7405C6.05017 14.1355 6.26684 14.4963 6.60973 14.702L10.6215 17.1082V11.4729L10.6231 11.4109C10.6486 10.9173 10.977 10.4868 11.4532 10.3323L22.8281 6.64016C23.6457 8.26475 24.106 10.0997 24.106 12.042C24.106 17.6605 20.2546 22.3803 15.0457 23.7099L15.0456 15.6971L10.6215 17.1082L10.6213 24C4.63948 23.2927 0 18.2087 0 12.042C0 5.3914 5.3963 0 12.053 0Z" fill="#FA2C19"/>
</svg>
