<?xml version="1.0" standalone="no"?>
<!DOCTYPE svg PUBLIC "-//W3C//DTD SVG 20010904//EN"
 "http://www.w3.org/TR/2001/REC-SVG-20010904/DTD/svg10.dtd">
<svg version="1.0" xmlns="http://www.w3.org/2000/svg"
 width="800.000000pt" height="800.000000pt" viewBox="0 0 800.000000 800.000000"
 preserveAspectRatio="xMidYMid meet">
<metadata>
Created by potrace 1.14, written by Peter Selinger 2001-2017
</metadata>
<g transform="translate(0.000000,800.000000) scale(0.100000,-0.100000)"
fill="#000000" stroke="none">
<path d="M3618 7835 c-1 -1 -37 -5 -78 -9 -137 -11 -181 -17 -323 -41 -78 -13
-153 -26 -167 -29 -14 -3 -36 -8 -50 -11 -14 -4 -36 -8 -50 -11 -14 -3 -44
-12 -68 -20 -23 -7 -48 -14 -55 -14 -18 0 -302 -94 -352 -116 -22 -10 -45 -19
-51 -20 -44 -8 -388 -175 -475 -230 -21 -13 -41 -24 -44 -24 -21 0 -410 -268
-427 -294 -4 -6 -8 -8 -8 -4 0 4 -10 -3 -23 -15 -13 -12 -45 -40 -72 -62 -113
-93 -306 -280 -400 -389 -27 -31 -56 -64 -63 -72 -28 -30 -147 -182 -191 -244
-25 -36 -49 -66 -53 -68 -5 -2 -8 -7 -8 -11 0 -8 -81 -137 -100 -158 -6 -7 -8
-13 -4 -13 4 0 0 -8 -8 -17 -9 -10 -24 -34 -33 -53 -10 -19 -21 -37 -24 -40
-15 -11 -164 -325 -214 -450 -120 -299 -206 -627 -243 -920 -2 -19 -6 -48 -9
-65 -13 -91 -19 -237 -19 -460 0 -224 3 -286 20 -430 2 -22 6 -60 9 -85 2 -25
5 -46 6 -47 3 -5 5 -17 13 -73 5 -30 10 -63 12 -72 2 -10 6 -28 9 -40 18 -91
40 -180 51 -216 8 -23 14 -48 14 -55 0 -13 64 -216 77 -247 4 -8 7 -19 8 -25
1 -5 9 -28 19 -50 10 -22 19 -47 21 -56 2 -9 8 -25 13 -35 5 -11 34 -73 63
-139 52 -118 109 -231 156 -310 13 -22 26 -48 30 -57 3 -10 9 -18 13 -18 4 0
11 -11 14 -25 4 -14 11 -25 16 -25 6 0 10 -5 10 -10 0 -17 202 -309 256 -370
7 -8 41 -49 76 -90 136 -164 403 -425 523 -512 6 -4 26 -20 45 -35 121 -98
303 -220 460 -310 101 -58 190 -106 200 -108 7 -2 135 -62 190 -89 25 -13 47
-23 50 -23 9 1 105 -36 116 -45 6 -4 19 -9 30 -11 10 -2 26 -7 34 -10 114 -44
359 -113 505 -142 65 -13 252 -45 292 -50 l42 -5 -1 93 c0 50 0 97 2 102 1 6
1 12 0 15 -6 17 -5 78 2 92 5 10 4 19 -2 23 -7 4 -7 12 0 25 6 10 7 21 3 23
-5 3 -7 25 -6 49 2 23 3 48 4 53 0 6 -1 42 -2 80 -1 39 0 75 1 80 1 6 1 12 0
15 -6 15 -5 87 2 101 4 9 4 19 1 23 -10 9 -10 69 -1 89 5 9 6 22 2 29 -6 10
-10 238 -4 263 1 6 1 12 0 15 -6 17 -5 78 2 92 5 10 4 19 -2 23 -7 4 -7 12 0
24 5 10 6 21 3 25 -10 9 -10 69 -1 88 5 10 4 19 -2 23 -7 4 -7 12 0 24 5 10 6
21 3 25 -10 9 -10 69 -1 88 5 10 4 19 -2 23 -7 4 -7 12 0 25 6 10 7 21 3 23
-5 3 -7 25 -6 49 2 23 3 48 4 53 0 6 -1 42 -2 80 -1 39 0 75 1 80 1 6 1 12 0
15 -6 16 -5 88 2 102 4 9 5 19 0 22 -4 2 -6 38 -5 78 l3 73 -117 70 c-64 39
-121 72 -127 74 -5 2 -15 8 -21 13 -21 18 -527 318 -536 318 -5 0 -9 5 -9 10
0 6 -5 10 -12 10 -6 0 -26 11 -45 26 -18 14 -33 22 -33 18 0 -4 -8 0 -17 8
-22 18 -125 80 -218 132 -11 6 -46 28 -78 49 -31 20 -61 37 -66 37 -17 0 -119
106 -144 150 -48 85 -49 94 -48 950 0 443 3 825 6 849 12 96 105 225 194 270
32 16 290 102 836 278 94 30 177 57 185 60 8 3 20 7 25 9 6 1 53 16 105 34 52
17 100 32 105 34 6 1 89 28 185 59 96 31 178 57 183 57 4 0 21 7 37 15 16 8
32 15 35 15 3 0 6 0 8 1 1 0 9 2 17 4 23 4 183 55 205 65 18 8 434 143 445
145 7 1 231 73 495 160 121 39 254 82 295 95 41 13 81 28 88 33 6 5 12 7 12 3
0 -3 21 3 48 13 26 10 50 19 55 19 4 1 106 33 227 72 121 40 221 71 222 70 2
-1 26 7 53 18 28 11 53 20 57 21 4 1 13 4 20 6 7 2 78 25 158 51 250 79 260
83 270 89 10 6 -25 43 -116 122 -104 89 -94 82 -234 188 -47 36 -88 65 -92 65
-5 0 -16 7 -25 16 -26 23 -213 143 -213 137 0 -4 -8 1 -17 9 -10 9 -63 39
-117 68 -55 28 -106 56 -115 61 -27 14 -173 80 -226 101 -27 11 -61 25 -75 31
-14 6 -27 11 -30 12 -3 1 -12 5 -20 8 -8 4 -76 27 -150 51 -191 64 -415 119
-567 142 -26 3 -57 8 -68 10 -11 2 -40 6 -65 9 -25 3 -76 9 -115 14 -38 5 -77
10 -85 10 -34 3 -549 9 -552 6z"/>
<path d="M7100 5649 c-96 -33 -184 -61 -195 -63 -11 -3 -60 -19 -110 -36 -49
-17 -97 -33 -105 -35 -19 -4 -344 -110 -385 -125 -16 -6 -37 -13 -45 -15 -8
-1 -44 -13 -80 -25 -36 -12 -69 -23 -75 -24 -5 -1 -55 -17 -110 -35 -135 -44
-129 -42 -135 -42 -3 -1 -11 -5 -17 -11 -7 -6 -13 -8 -13 -4 0 3 -17 -1 -37
-10 -21 -8 -46 -17 -56 -19 -19 -4 -380 -121 -407 -132 -8 -3 -20 -7 -26 -8
-13 -3 -435 -139 -619 -200 -71 -24 -285 -93 -475 -155 -654 -211 -618 -197
-698 -272 -45 -42 -98 -142 -107 -203 -10 -75 -11 -96 -3 -101 4 -3 4 -15 -1
-27 -6 -19 -7 -81 -1 -97 1 -3 1 -9 0 -15 -5 -20 -1 -156 5 -165 3 -5 1 -11
-3 -14 -10 -6 -8 -73 1 -82 3 -4 2 -17 -3 -30 -6 -15 -6 -26 1 -30 6 -3 6 -11
1 -17 -9 -13 -9 -74 1 -83 3 -3 2 -16 -2 -28 -6 -17 -7 -91 -1 -91 6 0 7 -36
1 -40 -9 -5 -7 -72 2 -81 3 -4 2 -16 -2 -28 -9 -25 -7 -78 3 -94 4 -7 4 -12
-1 -12 -4 0 -7 -15 -6 -32 1 -18 2 -33 3 -33 6 0 7 -36 1 -40 -9 -5 -7 -72 2
-81 3 -4 2 -16 -2 -28 -6 -17 -7 -91 -1 -91 6 0 7 -36 1 -40 -9 -5 -7 -72 2
-81 3 -4 2 -17 -3 -30 -6 -15 -6 -26 1 -30 6 -3 6 -11 1 -17 -7 -10 -8 -70 -2
-87 1 -3 1 -9 0 -15 -4 -17 -1 -218 4 -222 4 -4 179 46 226 64 8 4 17 7 20 8
3 1 12 4 20 8 16 6 218 69 235 73 6 1 38 11 71 23 34 12 70 24 80 26 11 2 152
47 314 100 162 52 302 97 310 99 8 1 24 6 35 10 98 36 95 35 96 18 1 -9 2
-585 3 -1279 0 -695 3 -1264 6 -1265 8 -3 97 22 230 65 69 23 127 42 130 42 8
2 43 16 65 25 11 5 65 27 120 50 87 37 291 134 335 161 8 4 56 32 105 60 101
59 338 217 372 248 12 12 26 21 32 21 5 0 11 3 13 8 2 4 26 25 53 47 28 22 55
44 61 50 7 5 38 33 70 60 62 54 263 252 329 325 34 38 153 182 178 215 55 74
98 132 107 142 5 7 10 15 10 18 0 3 12 23 28 44 44 62 51 73 85 130 18 30 45
75 60 100 15 25 33 58 38 73 6 16 15 28 20 28 5 0 9 4 9 9 0 6 27 65 59 133
72 150 101 213 101 220 0 3 8 23 17 44 9 22 18 48 20 58 2 11 7 24 12 30 5 6
23 56 41 111 27 85 39 128 66 225 16 61 64 277 68 307 3 21 5 38 6 38 1 0 3
11 5 25 11 85 15 110 20 150 40 281 35 750 -10 1000 -2 14 -7 45 -10 70 -2 25
-7 56 -10 70 -14 70 -34 168 -40 190 -3 14 -8 34 -10 45 -2 11 -13 54 -24 95
-12 41 -24 85 -27 98 -2 12 -27 86 -55 165 -28 78 -51 148 -52 155 0 6 -3 12
-7 12 -4 0 -13 19 -21 43 -7 23 -28 71 -45 107 -17 36 -39 82 -49 103 -10 22
-24 37 -34 36 -9 -1 -95 -28 -191 -60z"/>
</g>
</svg>
