<svg width="25" height="24" viewBox="0 0 25 24" fill="none" xmlns="http://www.w3.org/2000/svg">
<path d="M12.053 0C15.2737 0 18.1993 1.26207 20.3615 3.31822L6.85858 7.69526L6.79982 7.71598C6.33602 7.89304 6.02649 8.33736 6.02649 8.83606V13.6743L6.02832 13.7405C6.05017 14.1355 6.26684 14.4963 6.60973 14.702L10.6215 17.1082V11.4729L10.6231 11.4109C10.6486 10.9173 10.977 10.4868 11.4532 10.3323L22.8281 6.64016C23.6457 8.26475 24.106 10.0997 24.106 12.042C24.106 17.6605 20.2546 22.3803 15.0457 23.7099L15.0456 15.6971L10.6215 17.1082L10.6213 24C4.63948 23.2927 0 18.2087 0 12.042C0 5.3914 5.3963 0 12.053 0Z" fill="#FA2C19"/>
</svg>
